<svg width="518" height="404" viewBox="0 0 518 404" fill="none" xmlns="http://www.w3.org/2000/svg">
<path d="M484.279 256.055C484.279 256.055 518.613 241.784 515.444 207.006C512.382 173.275 481.029 165.189 481.029 165.189C481.029 165.189 488.945 145.213 483.471 135.745C475.883 122.618 461.614 126.171 461.614 126.171C461.614 126.171 468.116 99.7955 450.595 88.7766C433.074 77.7577 412.849 86.4308 412.849 86.4308C412.849 86.4308 410.32 47.4052 368.592 38.9241C319.9 29.0162 300.138 62.4055 300.138 62.4055C300.138 62.4055 301.4 43.6199 280.267 39.1032C259.133 34.5865 246.487 48.3158 246.487 48.3158C246.487 48.3158 241.429 1.16943 181.276 2.25276C121.123 3.3361 109.006 57.1701 109.006 57.1701C109.006 57.1701 90.1199 36.2861 66.0136 50.6659C45.4196 62.9493 43.9759 89.6915 43.9759 89.6915C43.9759 89.6915 10.738 91.1374 3.15036 120.4C-4.43724 149.664 18.686 164.839 18.686 164.839C18.686 164.839 -1.54551 182.539 8.56916 200.604C18.509 218.353 40.7237 213.613 40.7237 213.613C40.7237 213.613 24.1048 250.463 47.5884 273.586C71.072 296.709 93.0117 293.632 93.0117 293.632C93.0117 293.632 86.5202 314.22 96.9889 326.147C107.458 338.074 124.085 335.178 124.085 335.178C124.085 335.178 126.158 354.508 146.21 345.841C146.21 345.841 150.277 392.988 207.18 401.117C264.083 409.246 294.066 369.325 294.066 369.325C294.066 369.325 310.327 389.646 333.629 384.498C356.932 379.35 356.927 360.645 356.927 360.645C356.927 360.645 369.211 372.025 377.519 355.768C377.519 355.768 416.061 376.006 443.091 353.058C471.177 329.214 457.724 293.447 457.724 293.447C457.724 293.447 480.035 297.157 486.539 285.13C494.85 269.784 484.279 256.055 484.279 256.055Z" fill="#EFD378"/>
<path d="M154.616 34.9529C154.616 34.9529 147.578 34.9529 147.39 44.7072C147.203 54.4615 147.572 67.8304 160.216 68.1908C172.859 68.5512 179.905 62.5907 184.783 57.8948C189.66 53.199 195.802 39.2884 195.445 33.8696C195.089 28.4508 190.754 20.5028 186.593 22.8507C182.432 25.1986 172.864 35.8592 172.864 35.8592L167.626 49.949L158.774 37.6655L154.616 34.9529Z" fill="#E688A3"/>
<path d="M404.441 301.394C404.441 301.394 390.351 295.975 392.52 306.813C393.092 309.67 392.932 312.452 393.5 315C395.087 322.117 397.212 327.407 397.212 327.407C397.212 327.407 409.135 336.078 418.166 329.936C427.197 323.794 437.314 307.544 437.674 306.092C438.035 304.64 439.843 290.917 438.76 289.834C437.677 288.75 438.397 284.775 434.424 286.221C430.452 287.667 426.837 285.861 423.947 290.913C421.058 295.965 413.47 305.725 413.108 308.254C412.888 309.809 412.768 311.374 412.747 312.946L404.441 301.394Z" fill="#E688A3"/>
<path d="M77.8426 124.728C77.8426 124.728 71.8821 110.457 69.8882 107.749C67.8943 105.04 68.6236 101.607 63.2048 101.245C57.786 100.882 51.8255 101.607 49.2963 102.87C46.7671 104.132 43.8754 106.122 42.6129 107.561C41.3504 109.001 36.6418 112.076 37.192 115.878C37.7422 119.68 44.4192 142.975 43.6962 143.879C42.9733 144.783 51.8255 173.142 53.4505 177.478C55.0755 181.813 54.8964 183.98 61.2173 185.607C67.5381 187.234 75.4883 185.967 78.0175 184.342C80.5467 182.717 83.0759 181.632 84.7009 178.371C86.3259 175.11 88.4947 169.879 88.1321 165.906C87.7696 161.933 84.8821 161.752 85.9655 159.583C87.0488 157.415 94.9968 155.248 94.9968 155.248C94.9968 155.248 97.8885 162.113 98.9719 165.544C100.055 168.975 98.6094 173.673 103.663 175.119C108.718 176.565 118.657 175.842 121.547 174.938C124.437 174.033 128.772 173.492 131.12 170.783C133.468 168.075 134.553 162.835 133.831 159.946C133.108 157.056 138.347 161.931 141.418 164.279C144.489 166.627 149.545 169.7 155.508 170.061C161.47 170.421 158.758 171.325 167.791 169.879C176.825 168.433 183.506 166.99 187.119 164.1C190.731 161.21 192.719 159.042 195.79 154.346C198.861 149.65 201.029 146.029 202.473 143.869C203.917 141.708 203.377 137.185 204.642 143.869C205.907 150.552 203.738 150.733 206.086 154.346C208.434 157.958 207.892 160.667 213.123 161.029C218.354 161.392 219.265 162.654 224.142 161.39C229.019 160.125 229.2 161.029 231.909 158.86C234.617 156.692 235.521 155.61 235.884 151.275C236.246 146.939 237.328 141.339 237.328 141.339C237.328 141.339 247.263 154.348 251.419 156.152C255.576 157.956 257.199 157.958 262.257 158.319C267.315 158.679 277.249 151.996 278.063 152.269C278.878 152.542 283.968 154.589 288.086 156.321C292.204 158.052 302.447 162.012 310.576 161.198C318.706 160.383 323.585 163.366 326.57 160.927C329.556 158.487 331.989 159.031 333.608 156.05C335.226 153.068 337.129 147.108 335.774 145.754C334.42 144.4 335.233 142.231 331.981 140.606C328.729 138.981 319.247 134.645 314.097 134.375C308.947 134.104 305.699 133.833 305.699 133.833L306.512 130.847C306.512 130.847 312.743 131.389 318.703 130.847C324.664 130.305 329.002 130.305 331.168 129.492C333.335 128.68 335.233 125.698 335.233 125.698C335.233 125.698 335.774 123.53 337.129 127.323C337.886 129.473 338.801 131.564 339.869 133.577C339.869 133.577 345.017 139.269 348.54 141.435C352.063 143.602 353.417 141.706 353.959 144.421C354.5 147.136 352.605 154.175 353.146 157.157C353.688 160.138 350.436 160.677 355.313 164.471C360.19 168.265 356.398 171.509 365.336 172.059C374.273 172.609 381.051 163.659 381.051 163.659C381.051 163.659 399.476 134.667 402.457 131.415C405.438 128.162 413.566 106.757 413.566 106.757C413.566 106.757 417.63 102.963 414.107 99.4404C410.584 95.9174 404.624 87.5173 401.642 88.332C398.661 89.1466 394.605 89.6861 392.43 93.4799C390.255 97.2737 379.421 113.259 376.986 117.595C374.551 121.93 376.444 125.453 372.921 121.93C369.398 118.407 368.857 121.118 368.315 116.782C367.773 112.447 370.484 88.0611 368.857 86.1631C367.23 84.2652 361.545 81.7708 354.501 81.5C347.457 81.2292 345.013 82.6402 345.013 82.6402C345.013 82.6402 343.117 95.3757 342.575 97.0029C342.034 98.63 338.212 115.458 337.129 116C336.045 116.542 336.883 113.259 332.821 110.822C328.758 108.384 310.331 109.465 309.246 108.111C308.16 106.757 310.331 101.88 310.331 101.88C310.331 101.88 325.233 99.7112 327.942 100.253C330.65 100.795 334.175 101.88 336.883 101.336C339.592 100.792 346.001 96 346.001 96L345.013 88L342.3 80.4756C342.3 80.4756 324.417 74.786 323.604 74.786C322.792 74.786 297.862 72.3464 296.508 73.4297C295.154 74.513 289.191 75.3277 285.668 80.2048C282.145 85.0819 279.979 95.107 279.979 92.6695C279.979 90.232 276.185 78.3068 276.185 78.3068C276.185 78.3068 282.156 75.3213 272.391 74.786C262.626 74.2507 257.218 71.8004 255.051 74.2443C252.884 76.6882 250.174 77.4943 249.359 82.3715C248.545 87.2486 245.568 104.32 245.568 104.32C245.568 104.32 237.168 92.6696 235.545 89.1466C233.922 85.6236 232.836 77.2235 230.126 76.138C227.415 75.0526 215.765 74.7839 213.87 76.4089C211.974 78.0339 206.553 79.661 205.469 80.4735C204.386 81.286 201.946 83.4591 201.676 86.1631C201.405 88.8672 201.946 95.6466 201.134 98.357C200.321 101.068 200.321 104.047 198.965 102.963C197.609 101.88 190.025 93.2091 188.669 92.1236C187.313 91.0381 183.25 82.911 180.269 82.6402C177.288 82.3693 156.967 78.3047 149.381 82.6402C141.796 86.9756 135.016 89.9548 133.651 91.5798C132.287 93.2048 123.897 106.213 123.897 106.213C123.897 106.213 119.028 93.4842 116.047 92.6653C113.066 91.8464 106.293 88.6007 102.772 89.6797C99.2513 90.7588 93.2886 95.3694 93.2886 95.3694C92.2204 96.7171 91.4781 98.2937 91.1198 99.9757C90.5782 102.686 90.5782 118.672 91.1198 119.755C91.6615 120.838 91.1198 126.259 91.1198 126.259C91.1198 126.259 83.2614 127.884 82.4489 128.426C81.6364 128.968 77.8426 124.728 77.8426 124.728Z" fill="#E688A3"/>
<path d="M212.509 259.849C211.697 259.037 204.668 254.953 202.501 255.224C200.334 255.494 188.395 252.984 181.621 254.43C174.848 255.876 169.157 258.495 165.905 261.203C162.652 263.912 160.215 259.578 158.867 265.81C157.519 272.041 156.698 292.364 157.24 293.718C157.782 295.072 161.034 329.485 164.557 337.344C168.08 345.202 169.705 348.452 174.58 350.352C179.455 352.252 201.676 350.079 204.387 349.809C207.097 349.538 218.747 345.473 222.812 342.494C226.876 339.515 230.376 335.208 230.376 332.5C230.376 329.792 232.566 323.527 232.566 323.527L230.001 311.999L224.166 304.016L216.501 297.499C216.501 297.499 217.935 294.522 219.018 292.897C220.101 291.272 223.895 287.208 223.895 285.58C223.895 283.953 221.456 276.097 220.91 273.66C220.364 271.222 222.537 261.195 222.537 261.195L230.393 255.224C230.393 255.224 236.626 253.326 237.981 253.599C239.335 253.872 243.399 256.036 244.212 256.584C245.024 257.132 246.652 258.482 248.277 262.555C249.902 266.629 249.983 278.454 249.722 279.266C249.462 280.079 251.529 284.233 250.716 294.258C249.904 304.283 253.966 294.529 254.781 296.968C255.595 299.408 258.483 292.362 262.006 293.716C265.501 293.716 275.965 297.921 274.001 296C278.878 292.479 272.662 283.416 272.662 283.416C272.662 283.416 273.477 268.785 274.289 265.262C275.102 261.739 274.198 258.759 277.542 256.32C280.885 253.88 279.501 251.618 282.689 252.255C290.501 250.5 293.527 254.424 294.34 254.966C295.152 255.507 295.967 256.32 297.863 256.32C299.758 256.32 304.687 255.254 307.617 254.695C310.547 254.136 312.494 253.068 315.746 254.153C318.998 255.239 318.998 253.339 322.519 255.778C326.04 258.218 327.396 256.049 329.023 259.572C330.65 263.095 334.171 275.016 336.061 278.268C337.95 281.52 340.001 284.999 340.001 284.999C340.001 284.999 343.001 270.612 343.001 266.999C344.626 264.56 345.273 259.849 347.171 258.759C349.069 257.67 351.778 258.218 357.194 257.403C362.611 256.589 371.013 258.218 371.013 258.218C371.013 258.218 373.459 264.833 374.001 266.999C374.543 269.166 372.097 304.822 372.097 304.822C372.097 304.822 371.555 335.439 369.659 335.981C367.763 336.523 364.509 340.587 358.819 340.587C353.13 340.587 346.355 341.673 343.917 339.775C341.48 337.877 334.975 332.189 333.621 329.752C332.267 327.314 330.001 322.499 330.001 322.499C330.001 322.499 326.846 332.723 325.492 333.804C324.138 334.885 323.232 337.999 317.001 337.999C313.41 338.672 301.098 336.514 301.098 336.514C301.098 336.514 298.112 335.97 296.762 332.991C295.412 330.012 295.677 323.237 293.239 327.843C290.802 332.45 294.864 331.908 289.716 334.616C284.568 337.325 281.587 340.035 278.066 341.933C274.545 343.831 277.524 344.1 269.395 344.641C261.266 345.183 263.162 346.539 256.66 344.912C250.157 343.285 245.551 341.662 242.299 339.764C239.047 337.866 233.001 330.5 233.001 330.5L230.376 311.314L224.001 303.999L216.828 297.585L221.797 286.747L221.501 278L219.086 268.682L212.509 259.849Z" fill="#E688A3"/>
<path d="M143.141 169.076L157.501 170L168.341 179.372L172.677 187.501C172.677 187.501 172.677 174.493 173.218 173.682C173.76 172.872 179.45 166.097 182.431 166.368C185.412 166.639 192.454 168.264 193.269 168.534C194.084 168.805 198.688 175.572 198.146 178.83C197.604 182.089 199.232 190.212 199.773 195.089C200.315 199.966 201.398 207.825 201.398 207.825C201.398 207.825 198.124 211.085 203.001 210C207.878 208.915 208.501 205.5 214.946 204.572C221.992 207.012 226.596 211.61 226.055 208.908C225.513 206.206 222.263 186.96 223.888 182.083C225.513 177.205 225.242 172.599 227.14 169.074C229.038 165.549 231.192 162.037 234.455 162.572C237.718 163.107 242.855 163.384 244.751 165.009C246.647 166.634 248.545 171.243 248.545 171.243C248.545 171.243 249.135 168.532 253.151 167.449C257.166 166.366 259.926 165.551 263.72 166.366C267.514 167.18 267.241 166.095 269.951 167.72C272.662 169.345 272.659 167.449 277.266 174.757C281.872 182.066 285.395 192.099 286.478 193.182C287.562 194.266 289.189 201.853 289.189 196.435C289.189 191.016 289.189 183.5 289.189 180.178C290.001 177.741 291.628 174.757 291.628 170.422C295.151 167.982 296.501 167.161 299.485 164.451C307.612 164.711 309.239 164.18 313.033 166.349C316.827 168.517 319.537 169.869 320.35 171.497C321.162 173.124 318.722 167.432 321.162 167.161C323.602 166.89 322.868 165.937 327.664 165.805C332.46 165.673 334.702 164.451 338.504 165.805C342.306 167.159 350.425 173.122 351.148 175.109C351.871 177.097 353.677 184.863 356.567 191.005C359.456 197.147 357.652 208.166 360 199.857C362.348 191.549 363.794 181.251 366.321 177.097C368.848 172.942 364.154 171.315 372.292 170.592C380.43 169.869 385.301 169.69 387.646 171.315C389.992 172.94 392.523 171.497 392.705 176.007C392.886 180.517 392.342 191.724 392.524 192.265C392.705 192.807 394.33 177.092 395.955 176.549C397.58 176.005 400.472 173.659 405.167 176.007C409.863 178.355 412.574 178.717 415.103 180.342C417.632 181.967 418.174 180.884 418.355 185.582C418.536 190.28 417.632 200.936 417.993 205.272C418.353 209.607 418.534 213.943 418.534 213.943C418.534 213.943 421.063 218.999 421.786 218.88C422.509 218.76 424.316 218.517 428.05 212.857C431.784 207.198 435.394 200.702 437.804 197.324C440.214 193.946 441.416 190.7 444.065 189.007C446.714 187.314 446.475 184.315 453.099 186.84C459.722 189.365 464.659 192.138 465.621 194.908C466.583 197.678 467.067 195.27 464.056 204.061C461.044 212.851 455.867 219.841 453.578 225.015C451.29 230.189 440.333 248.859 435.025 255.122C429.717 261.386 422.983 265.719 420.334 266.683C417.685 267.647 416.762 270.229 411.181 266.683C405.6 263.136 401.305 263.19 402.751 256.688C404.197 250.185 405.524 241.152 404.918 240.188C404.312 239.224 403.233 239.105 399.017 236.936C394.801 234.767 391.31 226.22 388.902 232.603C386.495 238.985 388.54 245.728 385.29 250.183C382.04 254.638 385.049 255.843 378.786 255.728C372.522 255.613 366.02 257.775 361.926 254.282C357.831 250.789 355.665 248.985 353.496 246.093C351.327 243.201 349.282 232.607 347.476 236.94C345.669 241.274 345.187 245.257 342.417 247.78C339.647 250.303 333.868 251.512 330.262 251.393C326.656 251.273 319.002 246.997 316.291 247.176C313.581 247.356 313.039 248.441 304.91 248.622C296.781 248.804 293.181 248.622 290.278 246.277C287.376 243.931 279.801 237.606 279.441 236.522C279.08 235.439 278.537 248.624 276.37 249.531C274.203 250.437 274.924 250.433 266.797 250.975C258.67 251.516 256.68 252.962 252.705 249.891C248.73 246.82 248.191 236.162 245.48 239.777C242.77 243.391 242.772 246.279 236.99 249.71C231.209 253.141 228.861 254.402 224.526 255.491C220.19 256.581 215.001 258.409 196.527 254.408C193.623 253.779 196.888 251.516 188.211 253.504C179.533 255.491 178.827 252.602 173.579 256.214C168.33 259.827 163.464 260.906 160.754 261.814C158.043 262.723 155.335 263.621 145.039 264.523C134.743 265.425 132.934 267.956 126.072 264.523C119.209 261.089 111.982 245.556 112.161 243.749C112.34 241.943 111.62 212.318 110.355 207.441C109.09 202.564 106.02 194.616 106.382 189.741C106.745 184.866 108.073 177.937 110.355 176.732C112.637 175.527 123.903 172.578 127.516 171.674C131.128 170.769 143.141 169.076 143.141 169.076Z" fill="#E688A3"/>
<path d="M187.073 265.117L191.901 272.387L200.683 272.551L195.196 279.365L197.734 287.701L189.515 284.643L182.3 289.631L182.707 280.926L175.71 275.673L184.183 273.351L187.073 265.117Z" stroke="#1D1D1B" stroke-width="3" stroke-linecap="round" stroke-linejoin="round"/>
<path d="M195.431 305.025L201.112 313.641L211.429 313.848L204.991 321.911L207.983 331.789L198.324 328.155L189.856 334.054L190.325 323.745L182.098 317.514L192.048 314.775L195.431 305.025Z" stroke="#1D1D1B" stroke-width="3" stroke-linecap="round" stroke-linejoin="round"/>
<path d="M484.279 256.055C484.279 256.055 518.613 241.784 515.444 207.006C512.382 173.275 481.029 165.189 481.029 165.189C481.029 165.189 488.945 145.213 483.471 135.745C475.883 122.618 461.614 126.171 461.614 126.171C461.614 126.171 468.116 99.7955 450.595 88.7766C433.074 77.7577 412.849 86.4308 412.849 86.4308C412.849 86.4308 410.32 47.4052 368.592 38.9241C319.9 29.0162 300.138 62.4055 300.138 62.4055C300.138 62.4055 301.4 43.6199 280.267 39.1032C259.133 34.5865 246.487 48.3158 246.487 48.3158C246.487 48.3158 241.429 1.16943 181.276 2.25276C121.123 3.3361 109.006 57.1701 109.006 57.1701C109.006 57.1701 90.1199 36.2861 66.0136 50.6659C45.4196 62.9493 43.9759 89.6915 43.9759 89.6915C43.9759 89.6915 10.738 91.1374 3.15036 120.4C-4.43724 149.664 18.686 164.839 18.686 164.839C18.686 164.839 -1.54551 182.539 8.56916 200.604C18.509 218.353 40.7237 213.613 40.7237 213.613C40.7237 213.613 24.1048 250.463 47.5884 273.586C71.072 296.709 93.0117 293.632 93.0117 293.632C93.0117 293.632 86.5202 314.22 96.9889 326.147C107.458 338.074 124.085 335.178 124.085 335.178C124.085 335.178 126.158 354.508 146.21 345.841C146.21 345.841 150.277 392.988 207.18 401.117C264.083 409.246 294.066 369.325 294.066 369.325C294.066 369.325 310.327 389.646 333.629 384.498C356.932 379.35 356.927 360.645 356.927 360.645C356.927 360.645 369.211 372.025 377.519 355.768C377.519 355.768 416.061 376.006 443.091 353.058C471.177 329.214 457.724 293.447 457.724 293.447C457.724 293.447 480.035 297.157 486.539 285.13C494.85 269.784 484.279 256.055 484.279 256.055Z" stroke="black" stroke-width="3" stroke-linecap="round" stroke-linejoin="round"/>
<path d="M79.2831 129.248C79.2831 129.248 76.031 120.57 71.6955 111.187C67.36 101.804 60.8579 98.7225 48.9348 102.156C34.3183 106.363 38.8201 125.277 38.8201 125.277C38.8201 125.277 49.9286 173.047 53.1807 178.837C56.4328 184.627 63.4767 186.966 70.6122 185.972C74.2865 185.46 83.6207 182.901 85.9665 176.67C87.9114 171.509 85.2436 159.418 85.2436 159.418" stroke="#1D1D1B" stroke-width="3" stroke-linecap="round" stroke-linejoin="round"/>
<path d="M252.701 123.285C253.341 123.628 243.443 102.068 237.167 90.0467C232.378 80.8767 232.049 73.432 214.225 75.5966C196.402 77.7611 200.285 95.457 200.285 95.457C200.285 95.457 204.635 148.652 207.026 154.839C209.417 161.025 220.156 160.328 223.058 160.078C226.756 159.763 231.467 160.036 235.001 155.8C238.534 151.565 237.53 140.627 237.53 140.627" stroke="#1D1D1B" stroke-width="3" stroke-linecap="round" stroke-linejoin="round"/>
<path d="M73.5112 131.414C73.5112 131.414 89.9489 125.442 100.066 125.271" stroke="#1D1D1B" stroke-width="3" stroke-linecap="round" stroke-linejoin="round"/>
<path d="M79.4702 158.87C79.4702 158.87 97.1704 156.162 103.675 153.451" stroke="#1D1D1B" stroke-width="3" stroke-linecap="round" stroke-linejoin="round"/>
<path d="M112.636 175.55C109.539 175.708 106.744 175.275 104.935 173.864C99.879 169.914 97.3477 156.611 97.3477 156.611" stroke="#1D1D1B" stroke-width="3" stroke-linecap="round" stroke-linejoin="round"/>
<path d="M91.6563 124.64C91.6563 124.64 88.948 108.382 89.7605 102.963C90.573 97.544 93.599 92.6456 100.423 91.1315C106.927 89.6856 113.195 88.6108 117.946 95.1044C123.365 102.511 131.495 152.549 133.12 157.968C134.745 163.387 133.661 167.452 130.134 170.16" stroke="#1D1D1B" stroke-width="3" stroke-linecap="round" stroke-linejoin="round"/>
<path d="M123.906 106.494C123.906 106.494 131.903 83.8552 156.242 80.4772C182.195 76.8796 201.049 98.4844 202.847 129.069C204.645 159.655 180.31 167.846 167.532 169.081C155.76 170.218 139.169 165.017 133.661 156.166" stroke="#1D1D1B" stroke-width="3" stroke-linecap="round" stroke-linejoin="round"/>
<path d="M246.559 108.111C246.559 108.111 247.645 86.4333 248.728 82.8208C249.811 79.2083 251.018 75.6128 257.518 74.5039C264.982 73.2393 273.299 75.4656 273.299 75.4656C273.299 75.4656 276.551 75.9476 278.176 80.2831C279.801 84.6185 281.066 141.883 279.081 150.191C277.095 158.499 263.364 158.508 258.668 158.32C258.275 158.305 257.872 158.271 257.461 158.222C254.68 157.87 252.016 156.896 249.664 155.371C247.314 153.846 245.339 151.81 243.885 149.415L233.378 132.31" stroke="#1D1D1B" stroke-width="3" stroke-linecap="round" stroke-linejoin="round"/>
<path d="M246.838 233.511C246.962 236.71 247.222 241.035 248.994 245.513C251.436 251.681 262.058 251.165 264.963 250.951C268.663 250.681 273.369 251.011 276.954 246.823C280.539 242.634 279.671 231.682 279.671 231.682" stroke="#1D1D1B" stroke-width="3" stroke-linecap="round" stroke-linejoin="round"/>
<path d="M295.05 214.527C295.69 214.879 286.055 193.202 279.929 181.099C275.254 171.872 275.024 164.423 257.168 166.368C253.636 166.752 250.947 167.754 248.904 169.112" stroke="#1D1D1B" stroke-width="3" stroke-linecap="round" stroke-linejoin="round"/>
<path d="M289.099 199.281C289.099 199.281 290.451 177.619 291.579 174.021C292.708 170.424 293.959 166.841 300.474 165.819C307.955 164.649 316.236 166.977 316.236 166.977C316.236 166.977 319.482 167.5 321.053 171.855C322.625 176.209 323.186 233.485 321.092 241.768C318.998 250.051 305.275 249.872 300.581 249.643C300.191 249.624 299.788 249.586 299.376 249.53C293.755 248.786 288.818 245.425 285.909 240.557L275.615 223.321" stroke="#1D1D1B" stroke-width="3" stroke-linecap="round" stroke-linejoin="round"/>
<path d="M193.62 253.799C189.024 250.933 185.452 246.692 183.411 241.676" stroke="#1D1D1B" stroke-width="3" stroke-linecap="round" stroke-linejoin="round"/>
<path d="M172.138 187.472C171.102 180.279 170.682 167.727 183.616 166.466C206.293 164.257 195.682 193.68 201.446 213.169C201.446 213.169 204.781 206.287 213.448 205.705C222.115 205.123 225.16 211.25 225.16 211.25C225.16 211.25 220.127 169.904 231.054 164.492C240.393 159.866 247.658 167.021 249.215 171.382C251.987 179.125 247.852 232.038 244.882 240.05C242.455 246.595 232.684 256.191 216.075 257.927C214.813 258.055 213.595 258.14 212.424 258.183" stroke="#1D1D1B" stroke-width="3" stroke-linecap="round" stroke-linejoin="round"/>
<path d="M317.738 247.924C321.541 250.003 326.763 250.429 328.659 250.551C332.361 250.786 336.976 251.756 341.102 248.094C345.229 244.433 345.856 233.463 345.856 233.463" stroke="#1D1D1B" stroke-width="3" stroke-linecap="round" stroke-linejoin="round"/>
<path d="M363.435 218.57C364.011 218.996 357.432 196.212 353.011 183.383C349.637 173.603 350.428 166.192 332.47 165.682C327.265 165.535 323.671 166.947 321.193 169.031" stroke="#1D1D1B" stroke-width="3" stroke-linecap="round" stroke-linejoin="round"/>
<path d="M359.61 202.651C359.61 202.651 363.902 181.375 365.51 177.963C367.118 174.551 368.846 171.175 375.437 171.051C383.01 170.91 390.896 174.348 390.896 174.348C390.896 174.348 394.04 175.308 395.004 179.835C395.967 184.362 388.713 241.18 385.514 249.102C382.315 257.025 368.737 254.984 364.12 254.11C363.736 254.035 363.342 253.941 362.941 253.832C357.475 252.327 353.041 248.324 350.824 243.106L342.974 224.638" stroke="#1D1D1B" stroke-width="3" stroke-linecap="round" stroke-linejoin="round"/>
<path d="M391.978 305.371C391.978 305.371 389.449 336.079 413.654 331.388C437.858 326.696 446.35 282.979 432.26 286.229C418.17 289.479 412.752 314.769 412.752 314.769C412.752 314.769 399.022 285.139 391.978 305.371Z" stroke="#1D1D1B" stroke-width="3" stroke-linecap="round" stroke-linejoin="round"/>
<path d="M147.028 41.6364C147.028 41.6364 144.499 72.3451 168.703 67.6535C192.908 62.9619 201.4 19.2446 187.31 22.4925C173.22 25.7404 167.801 51.0345 167.801 51.0345C167.801 51.0345 154.072 21.407 147.028 41.6364Z" stroke="#1D1D1B" stroke-width="3" stroke-linecap="round" stroke-linejoin="round"/>
<path d="M279.613 148.394C280.763 154.505 286.58 156.902 292.221 158.086C295.015 158.67 312.312 161.357 324.452 161.05C329.707 160.918 334.667 157.536 335.81 152.407C337.09 146.679 335.098 141.802 331.215 139.185C326.77 136.2 304.541 135.212 304.541 135.212L305.264 128.888C305.264 128.888 323.938 131.167 331.281 129.43C336.879 128.106 337.542 118.991 336.373 115.916C334.712 111.547 330.04 110.308 326.583 109.922C323.126 109.536 308.882 107.211 308.882 107.211L310.508 100.174C310.508 100.174 331.773 102.321 335.797 102.161C344.829 101.799 345.462 95.4778 345.733 90.0569C346.004 84.636 343.387 81.0256 338.508 79.038C336.444 78.1978 328.088 76.3894 318.637 75.4255C309.185 74.4616 299.67 74.7026 299.67 74.7026C285.038 75.4255 283.676 88.884 283.676 88.884C283.676 88.884 280.784 104.147 279.882 109.115" stroke="#1D1D1B" stroke-width="3" stroke-linecap="round" stroke-linejoin="round"/>
<path d="M343.989 82.9436C343.989 82.9436 345.013 81.5574 348.806 80.7449C352.6 79.9324 365.065 81.0158 367.773 86.1638C370.482 91.3117 367.773 113.802 368.044 117.325C368.315 120.848 372.109 123.296 374.548 121.931C376.988 120.566 387.256 95.0607 393.786 91.5826C400.559 87.97 412.572 93.8409 415.011 101.699C417.451 109.558 383.85 166.278 375.913 169.891C370.192 172.492 362.455 172.691 356.765 167.001C351.075 161.311 356.042 143.157 356.042 143.157C356.042 143.157 344.571 142.517 340.959 133.582C337.374 124.71 338.852 108.204 339.664 103.054" stroke="#1D1D1B" stroke-width="3" stroke-linecap="round" stroke-linejoin="round"/>
<path d="M395.314 178.02C395.314 178.02 394.913 177.594 398.716 176.82C402.518 176.046 414.97 177.293 417.614 182.473C420.259 187.653 417.273 210.109 417.501 213.634C417.729 217.159 421.491 219.646 423.946 218.326C426.4 217.006 436.986 191.62 443.565 188.218C450.389 184.689 462.332 190.709 464.663 198.595C466.993 206.481 432.706 262.785 424.713 266.299C418.956 268.829 411.223 268.931 405.604 263.171C399.984 257.411 405.177 239.321 405.177 239.321C405.177 239.321 393.717 238.546 390.215 229.56C390.002 229.018 389.974 229.012 389.723 228.334" stroke="#1D1D1B" stroke-width="3" stroke-linecap="round" stroke-linejoin="round"/>
<path d="M195.167 228.301L205.118 234.199" stroke="#1D1D1B" stroke-width="3" stroke-linecap="round" stroke-linejoin="round"/>
<path d="M196.757 236.666L202.647 225.617" stroke="#1D1D1B" stroke-width="3" stroke-linecap="round" stroke-linejoin="round"/>
<path d="M232.715 225.936L222.831 231.937" stroke="#1D1D1B" stroke-width="3" stroke-linecap="round" stroke-linejoin="round"/>
<path d="M231.22 234.317L225.21 223.33" stroke="#1D1D1B" stroke-width="3" stroke-linecap="round" stroke-linejoin="round"/>
<path d="M165.237 210.821C165.237 210.821 180.395 214.02 182.684 230.419C184.748 245.219 180.528 252.467 171.36 258.387C162.9 263.851 146.196 264.572 133.733 265.179C121.271 265.787 117.982 258.579 116.14 251.907C115.31 248.9 107.917 199.924 107.917 199.924C107.917 199.924 104.46 185.358 111.412 177.506C117.515 170.61 143.377 167.336 154.357 168.607C166.287 169.989 183.04 195.552 165.237 210.821Z" stroke="#1D1D1B" stroke-width="3" stroke-linecap="round" stroke-linejoin="round"/>
<path d="M210.608 238.761L219.034 238.236L215.464 246.323L210.608 238.761Z" fill="#1D1D1B"/>
<path d="M295.507 323.254C295.434 326.453 296.057 328.069 297.552 332.637C299.612 338.941 310.247 339.073 313.158 339.035C316.868 338.99 321.545 339.609 325.379 335.644C329.214 331.68 329.015 320.697 329.015 320.697" stroke="#1D1D1B" stroke-width="3" stroke-linecap="round" stroke-linejoin="round"/>
<path d="M345.424 304.528C346.03 304.916 337.747 282.689 332.369 270.239C328.266 260.743 328.496 253.294 310.551 254.144C307.002 254.313 304.258 255.149 302.136 256.381" stroke="#1D1D1B" stroke-width="3" stroke-linecap="round" stroke-linejoin="round"/>
<path d="M340.415 288.945C340.415 288.945 343.085 267.406 344.433 263.883C345.781 260.36 347.246 256.863 353.816 256.24C361.355 255.528 369.478 258.358 369.478 258.358C369.478 258.358 372.677 259.078 373.988 263.52C375.3 267.963 372.355 325.164 369.761 333.306C367.168 341.448 353.479 340.439 348.809 339.917C348.419 339.874 348.02 339.81 347.613 339.731C344.866 339.177 342.279 338.008 340.046 336.315C337.816 334.622 335.992 332.447 334.719 329.951L325.496 312.121" stroke="#1D1D1B" stroke-width="3" stroke-linecap="round" stroke-linejoin="round"/>
<path d="M174.846 255.873C177.392 255.188 181.312 254.593 184.058 254.248C191.721 253.301 199.884 254.547 204.719 255.046C216.213 256.235 232.787 282.632 214.646 297.494C214.646 297.494 229.725 301.034 231.644 317.48C233.374 332.325 228.04 339.036 218.742 344.749C210.159 350.021 192.369 351.612 181.919 351.127C169.457 350.552 166.322 344.173 164.631 337.46C163.869 334.436 157.593 285.306 157.593 285.306C157.593 285.306 154.465 270.666 161.592 262.972" stroke="#1D1D1B" stroke-width="3" stroke-linecap="round" stroke-linejoin="round"/>
<path d="M222.079 281.133C222.079 281.133 222.59 296.939 225.239 303.2" stroke="#1D1D1B" stroke-width="3" stroke-linecap="round" stroke-linejoin="round"/>
<path d="M173.102 196.504C173.102 196.504 174.051 211.144 177.107 217.217" stroke="#1D1D1B" stroke-width="3" stroke-linecap="round" stroke-linejoin="round"/>
<path d="M233.264 329.464C235.303 334.48 238.877 338.724 243.473 341.588C243.473 341.588 251.713 346.514 262.276 345.947C263.449 345.883 264.666 345.821 265.929 345.691C282.537 343.955 292.308 334.358 294.735 327.814C297.706 319.804 301.832 266.891 299.069 259.146C297.51 254.784 290.246 247.63 280.906 252.255C269.981 257.668 275.013 299.014 275.013 299.014C275.013 299.014 271.97 292.887 263.301 293.469C254.633 294.051 251.299 300.933 251.299 300.933C245.542 281.454 256.145 252.031 233.469 254.241C220.535 255.501 220.953 268.053 221.99 275.246" stroke="#1D1D1B" stroke-width="3" stroke-linecap="round" stroke-linejoin="round"/>
<path d="M245.03 316.09L254.978 321.988" stroke="#1D1D1B" stroke-width="3" stroke-linecap="round" stroke-linejoin="round"/>
<path d="M246.61 324.457L252.502 313.408" stroke="#1D1D1B" stroke-width="3" stroke-linecap="round" stroke-linejoin="round"/>
<path d="M282.567 313.725L272.683 319.726" stroke="#1D1D1B" stroke-width="3" stroke-linecap="round" stroke-linejoin="round"/>
<path d="M281.07 322.106L275.063 311.119" stroke="#1D1D1B" stroke-width="3" stroke-linecap="round" stroke-linejoin="round"/>
<path d="M260.47 326.55L268.898 326.025L265.328 334.112L260.47 326.55Z" fill="#1D1D1B"/>
<path d="M222.955 284.293C222.955 284.293 223.904 298.933 226.96 305.006" stroke="#1D1D1B" stroke-width="3" stroke-linecap="round" stroke-linejoin="round"/>
<path d="M163.577 98.9844L169.356 107.536L179.675 107.621L173.331 115.759L176.438 125.601L166.737 122.08L158.337 128.077L158.687 117.764L150.389 111.628L160.306 108.773L163.577 98.9844Z" stroke="#1D1D1B" stroke-width="3" stroke-linecap="round" stroke-linejoin="round"/>
<path d="M138.734 179.486L143.645 186.701L152.429 186.763L147.021 193.64L149.654 201.946L141.401 198.982L134.245 204.053L134.552 195.346L127.495 190.173L135.94 187.754L138.734 179.486Z" stroke="#1D1D1B" stroke-width="3" stroke-linecap="round" stroke-linejoin="round"/>
<path d="M147.546 219.295L153.325 227.846L163.645 227.932L157.3 236.07L160.407 245.911L150.707 242.393L142.306 248.387L142.656 238.074L134.358 231.939L144.275 229.083L147.546 219.295Z" stroke="#1D1D1B" stroke-width="3" stroke-linecap="round" stroke-linejoin="round"/>
</svg>
