<svg width="91" height="96" viewBox="0 0 91 96" fill="none" xmlns="http://www.w3.org/2000/svg">
<path d="M83.2278 57.4618C83.2278 57.4618 88.9395 54.955 88.4124 48.8461C87.9029 42.9212 82.6871 41.5007 82.6871 41.5007C82.6871 41.5007 84.004 37.9919 83.0933 36.3287C81.8311 34.023 79.4573 34.647 79.4573 34.647C79.4573 34.647 80.539 30.0141 77.6242 28.0785C74.7095 26.143 71.3448 27.6665 71.3448 27.6665C71.3448 27.6665 70.9241 20.8114 63.9824 19.3217C55.8819 17.5813 52.5943 23.4463 52.5943 23.4463C52.5943 23.4463 52.8043 20.1465 49.2886 19.3531C45.7728 18.5598 43.6691 20.9714 43.6691 20.9714C43.6691 20.9714 42.8276 12.6899 32.8206 12.8802C22.8137 13.0705 20.7979 22.5267 20.7979 22.5267C20.7979 22.5267 17.6561 18.8583 13.6458 21.3842C10.2198 23.5418 9.97959 28.2392 9.97959 28.2392C9.97959 28.2392 4.45018 28.4932 3.18792 33.6334C1.92566 38.7737 5.7724 41.4393 5.7724 41.4393C5.7724 41.4393 2.40672 44.5484 4.08938 47.7216C5.74296 50.8393 9.43857 50.0066 9.43857 50.0066C9.43857 50.0066 6.67387 56.4796 10.5806 60.5413C14.4873 64.603 18.1371 64.0625 18.1371 64.0625C18.1371 64.0625 17.0572 67.6788 18.7988 69.7739C20.5403 71.869 23.3064 71.3603 23.3064 71.3603C23.3064 71.3603 23.6513 74.7556 26.9872 73.2332C26.9872 73.2332 27.6637 81.5147 37.13 82.9427C46.5963 84.3706 51.5843 77.3583 51.5843 77.3583C51.5843 77.3583 54.2894 80.9278 58.1659 80.0235C62.0425 79.1192 62.0418 75.8337 62.0418 75.8337C62.0418 75.8337 64.0852 77.8325 65.4674 74.977C65.4674 74.977 71.8791 78.5319 76.3758 74.5009C81.0481 70.3125 78.8102 64.0299 78.8102 64.0299C78.8102 64.0299 82.5218 64.6817 83.6038 62.569C84.9864 59.8734 83.2278 57.4618 83.2278 57.4618Z" fill="#EFD378"/>
<path d="M28.3864 18.6239C28.3864 18.6239 27.2157 18.6239 27.1844 20.3373C27.1532 22.0507 27.2146 24.399 29.318 24.4623C31.4214 24.5256 32.5936 23.4787 33.4049 22.6538C34.2163 21.829 35.2381 19.3855 35.1788 18.4336C35.1196 17.4818 34.3983 16.0857 33.7061 16.4981C33.014 16.9105 31.4221 18.7831 31.4221 18.7831L30.5508 21.2581L29.0782 19.1004L28.3864 18.6239Z" fill="#E688A3"/>
<path d="M69.9467 65.4272C69.9467 65.4272 67.6027 64.4754 67.9635 66.379C68.3243 68.2827 68.744 69.9965 68.744 69.9965C68.744 69.9965 70.7275 71.5196 72.23 70.4408C73.7324 69.3619 75.4154 66.5075 75.4754 66.2524C75.5353 65.9973 75.8362 63.5868 75.656 63.3965C75.4757 63.2062 75.5957 62.508 74.9347 62.762C74.2738 63.0159 73.6725 62.6987 73.1918 63.5861C72.711 64.4735 71.4488 66.188 71.3885 66.6323C71.3519 66.9053 71.3321 67.1803 71.3285 67.4564L69.9467 65.4272Z" fill="#E688A3"/>
<path d="M15.6137 34.3935C15.6137 34.3935 14.6222 31.8868 14.2905 31.411C13.9587 30.9353 14.0801 30.3322 13.1786 30.2685C12.2771 30.2048 11.2856 30.3322 10.8648 30.554C10.4441 30.7757 9.963 31.1252 9.75297 31.3781C9.54295 31.6309 8.75962 32.1711 8.85115 32.839C8.94268 33.5069 10.0535 37.5987 9.9332 37.7575C9.81293 37.9164 11.2856 42.8977 11.5559 43.6592C11.8262 44.4208 11.7964 44.8014 12.848 45.0872C13.8995 45.373 15.2221 45.1505 15.6428 44.8651C16.0636 44.5796 16.4843 44.3889 16.7547 43.8162C17.025 43.2434 17.3858 42.3246 17.3255 41.6267C17.2652 40.9288 16.7848 40.897 16.965 40.516C17.1453 40.1351 18.4675 39.7545 18.4675 39.7545C18.4675 39.7545 18.9486 40.9603 19.1288 41.563C19.309 42.1657 19.0685 42.991 19.9093 43.2449C20.7501 43.4989 22.4036 43.3719 22.8843 43.2131C23.3651 43.0543 24.0863 42.9591 24.4769 42.4834C24.8675 42.0077 25.0481 41.0873 24.9278 40.5797C24.8075 40.0721 25.6792 40.9285 26.1901 41.3409C26.7009 41.7533 27.5421 42.2931 28.534 42.3564C29.5259 42.4197 29.0747 42.5785 30.5775 42.3246C32.0803 42.0706 33.1918 41.817 33.7928 41.3094C34.3937 40.8018 34.7244 40.4209 35.2353 39.596C35.7461 38.7712 36.1069 38.1351 36.3471 37.7557C36.5873 37.3762 36.4975 36.5817 36.7079 37.7557C36.9183 38.9296 36.5575 38.9615 36.9481 39.596C37.3387 40.2306 37.2486 40.7063 38.1188 40.77C38.9891 40.8337 39.1405 41.0554 39.9519 40.8333C40.7632 40.6112 40.7934 40.77 41.244 40.389C41.6945 40.0081 41.8449 39.8182 41.9052 39.0566C41.9656 38.2951 42.1454 37.3114 42.1454 37.3114C42.1454 37.3114 43.7983 39.5964 44.4897 39.9133C45.1812 40.2302 45.4511 40.2306 46.2927 40.2939C47.1342 40.3572 48.7867 39.1832 48.9222 39.2312C49.0577 39.2791 49.9045 39.6387 50.5896 39.9429C51.2747 40.2471 52.9786 40.9427 54.331 40.7996C55.6834 40.6565 56.4951 41.1806 56.9917 40.752C57.4884 40.3235 57.8932 40.419 58.1625 39.8953C58.4317 39.3717 58.7482 38.3247 58.5229 38.0868C58.2976 37.8489 58.4328 37.468 57.8918 37.1825C57.3508 36.8971 55.7735 36.1355 54.9167 36.088C54.0599 36.0404 53.5196 35.9928 53.5196 35.9928L53.6548 35.4684C53.6548 35.4684 54.6914 35.5635 55.683 35.4684C56.6746 35.3731 57.3962 35.3731 57.7566 35.2304C58.1171 35.0877 58.4328 34.564 58.4328 34.564C58.4328 34.564 58.5229 34.183 58.7482 34.8494C58.8741 35.227 59.0263 35.5943 59.2041 35.9479C59.2041 35.9479 60.0605 36.9477 60.6466 37.3282C61.2326 37.7088 61.4579 37.3758 61.548 37.8527C61.6381 38.3295 61.3227 39.5661 61.4128 40.0897C61.503 40.6134 60.9619 40.7082 61.7733 41.3746C62.5846 42.041 61.9539 42.6108 63.4407 42.7074C64.9275 42.804 66.055 41.2319 66.055 41.2319C66.055 41.2319 69.1202 36.1393 69.6161 35.568C70.1121 34.9966 71.4641 31.2368 71.4641 31.2368C71.4641 31.2368 72.1403 30.5704 71.5542 29.9516C70.9682 29.3328 69.9766 27.8573 69.4806 28.0004C68.9847 28.1435 68.3099 28.2382 67.948 28.9046C67.5862 29.571 65.7839 32.379 65.3788 33.1405C64.9737 33.9021 65.2887 34.5209 64.7026 33.9021C64.1165 33.2832 64.0264 33.7593 63.9363 32.9978C63.8462 32.2363 64.2971 27.9528 64.0264 27.6194C63.7557 27.286 63.3052 27.0481 62.1334 27.0006C60.9616 26.953 60.0598 27.0006 60.0598 27.0006C60.0598 27.0006 59.7444 29.2376 59.6543 29.5235C59.5642 29.8093 59.1132 32.046 58.933 32.1411C58.7528 32.2363 58.7074 32.379 58.0316 31.9508C57.3557 31.5227 54.2902 31.7126 54.1096 31.4747C53.929 31.2368 54.2902 30.3801 54.2902 30.3801C54.2902 30.3801 56.7693 29.9992 57.2199 30.0943C57.6704 30.1895 58.2568 30.3801 58.7074 30.2846C59.1579 30.1891 60.0147 29.2376 60.0147 29.2376L59.6085 26.6204C59.6085 26.6204 56.6334 25.6209 56.4983 25.6209C56.3631 25.6209 52.2159 25.1924 51.9906 25.3827C51.7653 25.573 50.7734 25.7161 50.1873 26.5728C49.6012 27.4295 49.2408 29.1904 49.2408 28.7623C49.2408 28.3341 48.6096 26.2394 48.6096 26.2394C48.6096 26.2394 49.603 25.715 47.9785 25.6209C46.354 25.5269 45.4543 25.0965 45.0939 25.5258C44.7335 25.9551 44.2825 26.0967 44.147 26.9534C44.0115 27.8101 43.5162 30.8087 43.5162 30.8087C43.5162 30.8087 42.1188 28.7623 41.8488 28.1435C41.5789 27.5246 41.3983 26.0491 40.9474 25.8584C40.4965 25.6678 38.5584 25.6206 38.243 25.906C37.9276 26.1914 37.0258 26.4773 36.8455 26.62C36.6653 26.7627 36.2595 27.1444 36.2144 27.6194C36.1694 28.0944 36.2595 29.2852 36.1243 29.7613C35.9891 30.2374 35.9891 30.7607 35.7635 30.5704C35.5379 30.3801 34.2763 28.8571 34.0507 28.6664C33.8251 28.4757 33.1492 27.0481 32.6532 27.0006C32.1573 26.953 28.7767 26.239 27.5148 27.0006C26.2529 27.7621 25.1251 28.2854 24.898 28.5709C24.671 28.8563 23.2753 31.1413 23.2753 31.1413C23.2753 31.1413 22.4654 28.9054 21.9694 28.7615C21.4734 28.6177 20.3467 28.0476 19.761 28.2371C19.1752 28.4266 18.1833 29.2365 18.1833 29.2365C18.0056 29.4733 17.8821 29.7502 17.8225 30.0456C17.7324 30.5217 17.7324 33.3297 17.8225 33.52C17.9126 33.7103 17.8225 34.6625 17.8225 34.6625C17.8225 34.6625 16.5152 34.9479 16.38 35.0431C16.2449 35.1382 15.6137 34.3935 15.6137 34.3935Z" fill="#E688A3"/>
<path d="M38.0156 58.1288C37.8804 57.986 35.4914 57.2245 35.131 57.2721C34.7705 57.3196 34.0039 56.9229 32.8771 57.1769C31.7504 57.4309 30.8035 57.8909 30.2625 58.3666C29.7214 58.8424 29.3159 58.0812 29.0917 59.1758C28.8675 60.2703 28.7309 63.8402 28.821 64.078C28.9111 64.3159 29.4522 70.3607 30.0382 71.7411C30.6243 73.1215 30.8947 73.6924 31.7057 74.0261C32.5167 74.3599 36.2134 73.9782 36.6643 73.9306C37.1152 73.883 39.0533 73.169 39.7295 72.6457C40.4057 72.1224 41.217 71.5032 41.217 71.0275C41.217 70.5518 41.3522 69.3141 41.3522 69.3141L39.9547 65.887L38.9181 64.8381C38.9181 64.8381 38.9181 64.2193 39.0983 63.9338C39.2786 63.6484 39.9097 62.9344 39.9097 62.6486C39.9097 62.3628 39.5038 60.9828 39.413 60.5546C39.3222 60.1265 39.6837 58.3651 39.6837 58.3651L40.9907 57.3163C40.9907 57.3163 42.0277 56.9829 42.2529 57.0308C42.4782 57.0788 43.1544 57.459 43.2896 57.5553C43.4247 57.6515 43.6954 57.8886 43.9657 58.6041C44.2361 59.3196 44.2496 61.3967 44.2063 61.5394C44.163 61.6822 44.5068 62.4119 44.3716 64.1728C44.2364 65.9338 44.9123 64.2204 45.0478 64.6489C45.1833 65.0775 45.6637 63.8398 46.2497 64.0777C46.8358 64.3155 46.9408 64.7598 47.7522 64.1414C48.5635 63.5229 48.0225 62.2684 48.0225 62.2684C48.0225 62.2684 48.158 59.6983 48.2932 59.0795C48.4284 58.4607 48.2779 57.9373 48.8342 57.5088C49.3905 57.0803 47.8874 56.4143 49.6906 56.7948C51.4939 57.1754 51.4936 57.1758 51.6287 57.2709C51.7639 57.3661 51.8994 57.5088 52.2148 57.5088C52.5302 57.5088 53.3501 57.3215 53.8375 57.2234C54.325 57.1252 54.6489 56.9376 55.1899 57.1282C55.7309 57.3189 55.7309 56.9851 56.3166 57.4137C56.9024 57.8422 57.128 57.4612 57.3987 58.0801C57.6694 58.6989 58.2551 60.7929 58.5694 61.3641C58.8837 61.9354 59.1104 62.2208 59.1104 62.2208C59.1104 62.2208 59.2005 59.7935 59.4709 59.3649C59.7412 58.9364 60.102 58.1288 60.4177 57.9373C60.7335 57.7459 61.184 57.8422 62.0852 57.6991C62.9863 57.556 64.384 57.8422 64.384 57.8422C64.384 57.8422 64.4742 58.8416 64.5643 59.2222C64.6544 59.6028 64.5643 66.0286 64.5643 66.0286C64.5643 66.0286 64.4742 71.4066 64.1588 71.5017C63.8434 71.5969 63.302 72.3109 62.3555 72.3109C61.409 72.3109 60.2819 72.5015 59.8764 72.1681C59.4709 71.8347 58.3888 70.8357 58.1636 70.4075C57.9383 69.9794 57.3522 69.3587 57.3522 69.3587C57.3522 69.3587 57.0365 70.9294 56.8112 71.1193C56.5859 71.3092 56.4504 71.7381 55.4137 71.7381C54.3771 71.7381 52.753 71.5954 52.753 71.5954C52.753 71.5954 52.2563 71.4999 52.0317 70.9766C51.8072 70.4532 51.8512 69.2632 51.4457 70.0723C51.0402 70.8814 51.716 70.7863 50.8596 71.262C50.0032 71.7377 49.5072 72.2138 48.9215 72.5472C48.3358 72.8806 48.8314 72.9278 47.479 73.023C46.1266 73.1181 46.442 73.3563 45.3603 73.0705C44.2787 72.7847 43.5124 72.4996 42.9713 72.1663C42.4303 71.8329 41.7091 71.3571 41.7091 71.3571L40.9878 67.1688L38.734 64.7572L39.5606 62.8535L39.1097 59.6803L38.0156 58.1288Z" fill="#E688A3"/>
<path d="M26.4755 42.1833L28.7294 42.5167L30.6678 43.9918L31.389 45.4198C31.389 45.4198 31.389 43.1348 31.4792 42.9924C31.5693 42.8501 32.5158 41.66 33.0118 41.7076C33.5077 41.7551 34.6792 42.0406 34.8148 42.0882C34.9503 42.1357 35.7162 43.3243 35.6261 43.8967C35.536 44.4691 35.8067 45.8959 35.8968 46.7526C35.9869 47.6093 36.1671 48.9897 36.1671 48.9897C36.1671 48.9897 35.8968 48.9897 36.7081 48.799C37.5195 48.6083 37.2488 47.9899 38.421 48.4184C39.5931 48.8469 40.3591 49.6546 40.2689 49.1799C40.1788 48.7053 39.6382 45.3246 39.9085 44.4679C40.1788 43.6112 40.1338 42.8021 40.4495 42.1829C40.7653 41.5637 41.1236 40.9468 41.6664 41.0408C42.2092 41.1348 43.0638 41.1835 43.3792 41.469C43.6946 41.7544 44.0103 42.5639 44.0103 42.5639C44.0103 42.5639 44.1086 42.0878 44.7766 41.8975C45.4447 41.7072 45.9037 41.5641 46.5349 41.7072C47.166 41.8503 47.1206 41.6596 47.5715 41.9451C48.0224 42.2305 48.022 41.8975 48.7883 43.1812C49.5546 44.4649 50.1407 46.2274 50.3209 46.4177C50.5012 46.608 50.7718 47.9408 50.7718 46.989C50.7718 46.0371 50.6367 44.5616 50.7718 44.1334C50.907 43.7053 50.5916 42.8482 51.1777 42.4197C51.7638 41.9911 51.1326 41.3251 52.4847 41.3708C53.8367 41.4165 54.1074 41.3232 54.7385 41.7042C55.3696 42.0852 55.8205 42.3226 55.9557 42.6085C56.0909 42.8943 55.685 41.8945 56.0909 41.8469C56.4967 41.7993 56.3747 41.6319 57.1726 41.6087C57.9704 41.5855 58.3433 41.3708 58.9758 41.6087C59.6084 41.8465 60.959 42.8939 61.0793 43.243C61.1995 43.5921 61.5 44.9564 61.9807 46.0352C62.4614 47.1141 62.1613 49.0496 62.5519 47.5902C62.9425 46.1308 63.183 44.3218 63.6034 43.5921C64.0238 42.8624 63.243 42.5766 64.5968 42.4496C65.9506 42.3226 66.7609 42.2912 67.1511 42.5766C67.5414 42.8621 67.9625 42.6085 67.9926 43.4007C68.0228 44.193 67.9323 46.1615 67.9625 46.2566C67.9926 46.3518 68.263 43.5914 68.5333 43.4959C68.8036 43.4004 69.2847 42.9883 70.0659 43.4007C70.8471 43.8132 71.298 43.8768 71.7187 44.1623C72.1395 44.4477 72.2296 44.2574 72.2598 45.0826C72.2899 45.9079 72.1395 47.7797 72.1995 48.5413C72.2594 49.3028 72.2896 50.0644 72.2896 50.0644C72.2896 50.0644 72.7103 50.9525 72.8306 50.9315C72.9509 50.9106 73.2513 50.8679 73.8725 49.8737C74.4937 48.8795 75.0944 47.7385 75.4953 47.1452C75.8961 46.5518 76.0962 45.9817 76.5368 45.6842C76.9775 45.3868 76.9377 44.8601 78.0396 45.3037C79.1415 45.7472 79.9628 46.2341 80.1228 46.7207C80.2828 47.2073 80.3634 46.7844 79.8624 48.3285C79.3615 49.8726 78.5001 51.1005 78.1195 52.0092C77.7388 52.918 75.916 56.1976 75.033 57.2977C74.15 58.3979 73.0296 59.1591 72.589 59.3284C72.1484 59.4977 71.9948 59.9514 71.0663 59.3284C70.1379 58.7055 69.4234 58.7148 69.6639 57.5727C69.9045 56.4306 70.1251 54.8438 70.0244 54.6745C69.9236 54.5052 69.7441 54.4842 69.0427 54.1032C68.3414 53.7223 67.7606 52.2209 67.3601 53.342C66.9595 54.4632 67.2998 55.6477 66.7591 56.4302C66.2184 57.2127 66.719 57.4244 65.6771 57.4041C64.6351 57.3839 63.5534 57.7637 62.8723 57.1502C62.1911 56.5366 61.8307 56.2197 61.4699 55.7117C61.1091 55.2038 60.7688 53.3428 60.4684 54.104C60.1679 54.8651 60.0877 55.5649 59.6268 56.008C59.166 56.4512 58.2046 56.6636 57.6047 56.6426C57.0048 56.6216 55.7315 55.8705 55.2806 55.902C54.8297 55.9335 54.7396 56.1241 53.3872 56.156C52.0348 56.1878 51.436 56.156 50.9531 55.7439C50.4703 55.3319 49.2102 54.2208 49.1502 54.0305C49.0902 53.8403 48.9998 56.1564 48.6393 56.3156C48.2789 56.4748 48.3988 56.474 47.0468 56.5692C45.6948 56.6643 45.3638 56.9183 44.7025 56.3789C44.0412 55.8395 43.9514 53.9672 43.5005 54.6022C43.0496 55.2371 43.05 55.7443 42.0882 56.347C41.1264 56.9497 40.7358 57.1711 40.0146 57.3626C39.2933 57.554 35.84 57.2828 35.3568 57.1723C34.8736 57.0618 35.4168 56.6643 33.9732 57.0134C32.5296 57.3626 32.4122 56.855 31.5391 57.4895C30.666 58.1241 29.8564 58.3136 29.4055 58.4732C28.9546 58.6328 28.5041 58.7905 26.7913 58.949C25.0784 59.1074 24.7776 59.552 23.636 58.949C22.4943 58.3459 21.292 55.6173 21.3218 55.3C21.3516 54.9828 21.2317 49.7789 21.0213 48.9222C20.8109 48.0655 20.3001 46.6694 20.3604 45.8131C20.4207 44.9568 20.6417 43.7397 21.0213 43.5281C21.4009 43.3164 23.2752 42.7984 23.8761 42.6396C24.4771 42.4807 26.4755 42.1833 26.4755 42.1833Z" fill="#E688A3"/>
<path d="M33.7848 59.0527L34.588 60.3297L36.0489 60.3586L35.1361 61.5554L35.5583 63.0197L34.191 62.4825L32.9908 63.3587L33.0585 61.8296L31.8945 60.907L33.304 60.499L33.7848 59.0527Z" stroke="#1D1D1B" stroke-linecap="round" stroke-linejoin="round"/>
<path d="M35.1751 66.0625L36.1202 67.5759L37.8365 67.6122L36.7655 69.0285L37.2632 70.7636L35.6565 70.1253L34.2477 71.1615L34.3258 69.3507L32.957 68.2561L34.6124 67.7751L35.1751 66.0625Z" stroke="#1D1D1B" stroke-linecap="round" stroke-linejoin="round"/>
<path d="M83.2278 57.4618C83.2278 57.4618 88.9395 54.955 88.4124 48.8461C87.9029 42.9212 82.6871 41.5007 82.6871 41.5007C82.6871 41.5007 84.004 37.9919 83.0933 36.3287C81.8311 34.023 79.4573 34.647 79.4573 34.647C79.4573 34.647 80.539 30.0141 77.6242 28.0785C74.7095 26.143 71.3448 27.6665 71.3448 27.6665C71.3448 27.6665 70.9241 20.8114 63.9824 19.3217C55.8819 17.5813 52.5943 23.4463 52.5943 23.4463C52.5943 23.4463 52.8043 20.1465 49.2886 19.3531C45.7728 18.5598 43.6691 20.9714 43.6691 20.9714C43.6691 20.9714 42.8276 12.6899 32.8206 12.8802C22.8137 13.0705 20.7979 22.5267 20.7979 22.5267C20.7979 22.5267 17.6561 18.8583 13.6458 21.3842C10.2198 23.5418 9.97959 28.2392 9.97959 28.2392C9.97959 28.2392 4.45018 28.4932 3.18792 33.6334C1.92566 38.7737 5.7724 41.4393 5.7724 41.4393C5.7724 41.4393 2.40672 44.5484 4.08938 47.7216C5.74296 50.8393 9.43857 50.0066 9.43857 50.0066C9.43857 50.0066 6.67387 56.4796 10.5806 60.5413C14.4873 64.603 18.1371 64.0625 18.1371 64.0625C18.1371 64.0625 17.0572 67.6788 18.7988 69.7739C20.5403 71.869 23.3064 71.3603 23.3064 71.3603C23.3064 71.3603 23.6513 74.7556 26.9872 73.2332C26.9872 73.2332 27.6637 81.5147 37.13 82.9427C46.5963 84.3706 51.5843 77.3583 51.5843 77.3583C51.5843 77.3583 54.2894 80.9278 58.1659 80.0235C62.0425 79.1192 62.0418 75.8337 62.0418 75.8337C62.0418 75.8337 64.0852 77.8325 65.4674 74.977C65.4674 74.977 71.8791 78.5319 76.3758 74.5009C81.0481 70.3125 78.8102 64.0299 78.8102 64.0299C78.8102 64.0299 82.5218 64.6817 83.6038 62.569C84.9864 59.8734 83.2278 57.4618 83.2278 57.4618Z" stroke="black" stroke-linecap="round" stroke-linejoin="round"/>
<path d="M15.8519 35.1873C15.8519 35.1873 15.3109 33.6631 14.5896 32.0149C13.8684 30.3667 12.7867 29.8254 10.8032 30.4285C8.37162 31.1676 9.12054 34.4899 9.12054 34.4899C9.12054 34.4899 10.9685 42.8809 11.5095 43.8979C12.0506 44.9149 13.2224 45.3258 14.4094 45.1513C15.0207 45.0614 16.5735 44.6119 16.9637 43.5173C17.2873 42.6108 16.8435 40.4869 16.8435 40.4869" stroke="#1D1D1B" stroke-linecap="round" stroke-linejoin="round"/>
<path d="M44.7012 34.1403C44.8076 34.2006 43.1612 30.4135 42.1171 28.3019C41.3203 26.6911 41.2656 25.3834 38.3005 25.7636C35.3354 26.1438 35.9814 29.2522 35.9814 29.2522C35.9814 29.2522 36.7051 38.5962 37.1028 39.6829C37.5005 40.7696 39.2871 40.6471 39.7699 40.6033C40.3851 40.5478 41.1688 40.5958 41.7566 39.8518C42.3445 39.1079 42.1774 37.1866 42.1774 37.1866" stroke="#1D1D1B" stroke-linecap="round" stroke-linejoin="round"/>
<path d="M14.8945 35.5673C14.8945 35.5673 17.6291 34.5182 19.3121 34.4883" stroke="#1D1D1B" stroke-linecap="round" stroke-linejoin="round"/>
<path d="M15.8828 40.3913C15.8828 40.3913 18.8274 39.9156 19.9094 39.4395" stroke="#1D1D1B" stroke-linecap="round" stroke-linejoin="round"/>
<path d="M21.4027 43.3209C20.8876 43.3486 20.4225 43.2726 20.1216 43.0246C19.2805 42.3309 18.8594 39.9941 18.8594 39.9941" stroke="#1D1D1B" stroke-linecap="round" stroke-linejoin="round"/>
<path d="M17.911 34.3793C17.911 34.3793 17.4604 31.5234 17.5956 30.5716C17.7308 29.6198 18.2342 28.7593 19.3694 28.4934C20.4515 28.2394 21.4941 28.0506 22.2846 29.1912C23.186 30.4922 24.5384 39.2817 24.8088 40.2336C25.0791 41.1854 24.8989 41.8994 24.3121 42.3751" stroke="#1D1D1B" stroke-linecap="round" stroke-linejoin="round"/>
<path d="M23.2773 31.1895C23.2773 31.1895 24.6077 27.2129 28.6567 26.6195C32.9742 25.9876 36.1108 29.7826 36.4098 35.155C36.7089 40.5275 32.6606 41.9664 30.5348 42.1832C28.5765 42.3829 25.8164 41.4693 24.9001 39.9147" stroke="#1D1D1B" stroke-linecap="round" stroke-linejoin="round"/>
<path d="M43.6811 31.4754C43.6811 31.4754 43.8617 27.6676 44.0419 27.0331C44.2221 26.3985 44.4229 25.767 45.5042 25.5722C46.7459 25.35 48.1295 25.7411 48.1295 25.7411C48.1295 25.7411 48.6705 25.8258 48.9409 26.5873C49.2112 27.3489 49.4216 37.4076 49.0913 38.867C48.761 40.3264 46.4767 40.3279 45.6955 40.2949C45.6302 40.2923 45.5631 40.2863 45.4947 40.2777C45.0321 40.2159 44.5889 40.0447 44.1976 39.7769C43.8067 39.5091 43.4782 39.1513 43.2362 38.7306L41.4883 35.726" stroke="#1D1D1B" stroke-linecap="round" stroke-linejoin="round"/>
<path d="M43.7266 53.5011C43.7471 54.063 43.7904 54.8227 44.0852 55.6093C44.4914 56.6926 46.2585 56.602 46.7417 56.5645C47.3573 56.5169 48.1402 56.575 48.7366 55.8393C49.333 55.1036 49.1886 53.1797 49.1886 53.1797" stroke="#1D1D1B" stroke-linecap="round" stroke-linejoin="round"/>
<path d="M51.7471 50.1664C51.8536 50.2282 50.2507 46.4205 49.2315 44.2947C48.4538 42.6738 48.4155 41.3653 45.445 41.707C44.8575 41.7744 44.4102 41.9505 44.0703 42.1891" stroke="#1D1D1B" stroke-linecap="round" stroke-linejoin="round"/>
<path d="M50.7588 47.4902C50.7588 47.4902 50.9837 43.6851 51.1714 43.0532C51.3591 42.4213 51.5673 41.7919 52.6511 41.6125C53.8957 41.4069 55.2732 41.8159 55.2732 41.8159C55.2732 41.8159 55.8132 41.9077 56.0747 42.6726C56.3361 43.4375 56.4294 53.4983 56.081 54.9533C55.7327 56.4082 53.4497 56.3767 52.6689 56.3366C52.604 56.3333 52.5369 56.3265 52.4684 56.3168C51.5333 56.186 50.712 55.5957 50.2281 54.7405L48.5156 51.713" stroke="#1D1D1B" stroke-linecap="round" stroke-linejoin="round"/>
<path d="M34.8741 57.0651C34.1096 56.5617 33.5154 55.8166 33.1758 54.9355" stroke="#1D1D1B" stroke-linecap="round" stroke-linejoin="round"/>
<path d="M31.2998 45.4152C31.1274 44.1517 31.0575 41.9469 33.2092 41.7255C36.9818 41.3374 35.2165 46.5057 36.1754 49.9291C36.1754 49.9291 36.7303 48.7203 38.1721 48.618C39.6138 48.5157 40.1204 49.5919 40.1204 49.5919C40.1204 49.5919 39.2832 42.3293 41.101 41.3786C42.6545 40.5661 43.8632 41.8229 44.1222 42.5889C44.5834 43.9491 43.8955 53.2435 43.4013 54.6508C42.9976 55.8004 41.3721 57.4861 38.6091 57.791C38.3991 57.8135 38.1965 57.8285 38.0018 57.836" stroke="#1D1D1B" stroke-linecap="round" stroke-linejoin="round"/>
<path d="M55.5234 56.0323C56.156 56.3975 57.0248 56.4724 57.3402 56.4938C57.9561 56.535 58.7238 56.7054 59.4103 56.0623C60.0967 55.4191 60.2011 53.4922 60.2011 53.4922" stroke="#1D1D1B" stroke-linecap="round" stroke-linejoin="round"/>
<path d="M63.1249 50.8777C63.2207 50.9526 62.1262 46.9505 61.3908 44.6969C60.8295 42.979 60.9612 41.6773 57.9737 41.5878C57.1077 41.5619 56.5099 41.8099 56.0977 42.1759" stroke="#1D1D1B" stroke-linecap="round" stroke-linejoin="round"/>
<path d="M62.4863 48.0808C62.4863 48.0808 63.2004 44.3434 63.4679 43.7441C63.7354 43.1447 64.0228 42.5518 65.1194 42.53C66.3792 42.5053 67.6911 43.1092 67.6911 43.1092C67.6911 43.1092 68.214 43.2777 68.3744 44.073C68.5347 44.8682 67.3278 54.8485 66.7957 56.2401C66.2635 57.6317 64.0047 57.2733 63.2366 57.1197C63.1728 57.1066 63.1071 57.0901 63.0404 57.071C62.1312 56.8065 61.3936 56.1034 61.0247 55.1868L59.7188 51.9428" stroke="#1D1D1B" stroke-linecap="round" stroke-linejoin="round"/>
<path d="M67.8719 66.127C67.8719 66.127 67.4512 71.5211 71.4778 70.697C75.5044 69.8729 76.9171 62.1938 74.5732 62.7647C72.2292 63.3355 71.3277 67.7778 71.3277 67.7778C71.3277 67.7778 69.0437 62.5732 67.8719 66.127Z" stroke="#1D1D1B" stroke-linecap="round" stroke-linejoin="round"/>
<path d="M27.1219 19.7992C27.1219 19.7992 26.7012 25.1934 30.7278 24.3692C34.7545 23.5451 36.1671 15.866 33.8232 16.4365C31.4792 17.007 30.5777 21.45 30.5777 21.45C30.5777 21.45 28.2937 16.2458 27.1219 19.7992Z" stroke="#1D1D1B" stroke-linecap="round" stroke-linejoin="round"/>
<path d="M49.1797 38.5505C49.3709 39.6241 50.3387 40.0451 51.2771 40.253C51.7418 40.3556 54.6193 40.8276 56.639 40.7737C57.5132 40.7505 58.3384 40.1563 58.5285 39.2555C58.7414 38.2493 58.41 37.3926 57.764 36.933C57.0247 36.4085 53.3266 36.2351 53.3266 36.2351L53.4468 35.1243C53.4468 35.1243 56.5535 35.5245 57.775 35.2194C58.7063 34.9868 58.8166 33.3858 58.6222 32.8456C58.3458 32.0781 57.5685 31.8605 56.9934 31.7927C56.4184 31.7249 54.0489 31.3166 54.0489 31.3166L54.3192 30.0804C54.3192 30.0804 57.857 30.4576 58.5264 30.4295C60.0288 30.3658 60.1342 29.2555 60.1793 28.3033C60.2243 27.3511 59.789 26.7169 58.9773 26.3678C58.6339 26.2202 57.2439 25.9026 55.6716 25.7333C54.0992 25.5639 52.5163 25.6063 52.5163 25.6063C50.0822 25.7333 49.8555 28.0973 49.8555 28.0973C49.8555 28.0973 49.3745 30.7783 49.2244 31.6511" stroke="#1D1D1B" stroke-linecap="round" stroke-linejoin="round"/>
<path d="M59.8901 27.0539C59.8901 27.0539 60.0604 26.8104 60.6916 26.6677C61.3227 26.525 63.3963 26.7153 63.8469 27.6195C64.2974 28.5238 63.8469 32.4742 63.8919 33.0931C63.937 33.7119 64.5681 34.1419 64.974 33.9022C65.3798 33.6625 67.088 29.1823 68.1743 28.5714C69.3011 27.9368 71.2995 28.9681 71.7053 30.3484C72.1112 31.7288 66.5215 41.692 65.201 42.3266C64.2492 42.7836 62.9621 42.8184 62.0156 41.819C61.069 40.8196 61.8953 37.6307 61.8953 37.6307C61.8953 37.6307 59.987 37.5183 59.386 35.9487C58.7897 34.3903 59.0355 31.4909 59.1707 30.5863" stroke="#1D1D1B" stroke-linecap="round" stroke-linejoin="round"/>
<path d="M68.4263 43.7557C68.4263 43.7557 68.3596 43.6808 68.9922 43.5448C69.6247 43.4088 71.6962 43.6279 72.1361 44.5378C72.576 45.4477 72.0793 49.3922 72.1173 50.0114C72.1553 50.6306 72.7811 51.0674 73.1894 50.8355C73.5977 50.6036 75.3588 46.1445 76.4533 45.547C77.5885 44.927 79.5752 45.9845 79.963 47.3697C80.3507 48.755 74.6468 58.645 73.3171 59.2623C72.3592 59.7066 71.0729 59.7246 70.138 58.7128C69.2032 57.701 70.0671 54.5233 70.0671 54.5233C70.0671 54.5233 68.1606 54.3874 67.578 52.8088C67.5426 52.7137 67.538 52.7126 67.4961 52.5934" stroke="#1D1D1B" stroke-linecap="round" stroke-linejoin="round"/>
<path d="M35.1328 52.5859L36.7882 53.6221" stroke="#1D1D1B" stroke-linecap="round" stroke-linejoin="round"/>
<path d="M35.3945 54.056L36.3744 52.1152" stroke="#1D1D1B" stroke-linecap="round" stroke-linejoin="round"/>
<path d="M41.3787 52.1719L39.7344 53.226" stroke="#1D1D1B" stroke-linecap="round" stroke-linejoin="round"/>
<path d="M41.1286 53.6428L40.1289 51.7129" stroke="#1D1D1B" stroke-linecap="round" stroke-linejoin="round"/>
<path d="M30.1514 49.517C30.1514 49.517 32.6731 50.0789 33.0538 52.9595C33.3972 55.5592 32.6951 56.8325 31.17 57.8723C29.7626 58.832 26.9837 58.9586 24.9104 59.0654C22.8372 59.1722 22.2901 57.906 21.9836 56.7339C21.8456 56.2058 20.6156 47.6029 20.6156 47.6029C20.6156 47.6029 20.0406 45.0444 21.1971 43.6651C22.2124 42.4537 26.5147 41.8787 28.3414 42.102C30.326 42.3447 33.113 46.8349 30.1514 49.517Z" stroke="#1D1D1B" stroke-linecap="round" stroke-linejoin="round"/>
<path d="M37.6992 54.4242L39.1009 54.332L38.507 55.7525L37.6992 54.4242Z" fill="#1D1D1B"/>
<path d="M51.8252 69.2655C51.8131 69.8274 51.9167 70.1114 52.1654 70.9138C52.5081 72.021 54.2773 72.0443 54.7616 72.0375C55.3789 72.0297 56.1569 72.1383 56.7947 71.4419C57.4326 70.7456 57.3996 68.8164 57.3996 68.8164" stroke="#1D1D1B" stroke-linecap="round" stroke-linejoin="round"/>
<path d="M60.1272 65.977C60.228 66.0452 58.85 62.1408 57.9553 59.9539C57.2727 58.2859 57.3111 56.9774 54.3257 57.1269C53.7354 57.1565 53.2788 57.3033 52.9258 57.5198" stroke="#1D1D1B" stroke-linecap="round" stroke-linejoin="round"/>
<path d="M59.2945 63.2396C59.2945 63.2396 59.7386 59.4562 59.9628 58.8373C60.1871 58.2185 60.4308 57.6042 61.5238 57.4948C62.7779 57.3697 64.1292 57.8668 64.1292 57.8668C64.1292 57.8668 64.6614 57.9934 64.8796 58.7737C65.0977 59.5539 64.6078 69.6016 64.1764 71.0318C63.745 72.462 61.4678 72.2849 60.6908 72.1931C60.6259 72.1856 60.5596 72.1744 60.4918 72.1605C60.0349 72.0631 59.6045 71.8578 59.2331 71.5604C58.862 71.263 58.5587 70.8809 58.3469 70.4426L56.8125 67.3106" stroke="#1D1D1B" stroke-linecap="round" stroke-linejoin="round"/>
<path d="M31.7494 57.4301C32.173 57.3099 32.8251 57.2054 33.282 57.1447C34.5568 56.9784 35.9148 57.1971 36.7191 57.2848C38.6313 57.4938 41.3885 62.1305 38.3705 64.7411C38.3705 64.7411 40.8791 65.3629 41.1984 68.2517C41.4861 70.8593 40.5988 72.0381 39.052 73.0417C37.6241 73.9677 34.6646 74.2471 32.9262 74.1621C30.8529 74.0609 30.3314 72.9405 30.0501 71.7613C29.9235 71.2301 28.8794 62.6003 28.8794 62.6003C28.8794 62.6003 28.3589 60.0287 29.5446 58.6772" stroke="#1D1D1B" stroke-linecap="round" stroke-linejoin="round"/>
<path d="M39.6094 61.8672C39.6094 61.8672 39.6945 64.6437 40.1351 65.7435" stroke="#1D1D1B" stroke-linecap="round" stroke-linejoin="round"/>
<path d="M31.4609 47.002C31.4609 47.002 31.6188 49.5735 32.1272 50.6404" stroke="#1D1D1B" stroke-linecap="round" stroke-linejoin="round"/>
<path d="M41.4684 70.3568C41.8075 71.2378 42.4021 71.9833 43.1666 72.4863C43.1666 72.4863 44.5375 73.3516 46.2946 73.252C46.4897 73.2408 46.6923 73.2299 46.9023 73.207C49.6653 72.9021 51.2908 71.2165 51.6945 70.0668C52.1887 68.6599 52.8752 59.3655 52.4154 58.0049C52.1561 57.2389 50.9478 55.9821 49.3939 56.7946C47.5764 57.7454 48.4136 65.008 48.4136 65.008C48.4136 65.008 47.9074 63.9318 46.4653 64.034C45.0231 64.1363 44.4686 65.3451 44.4686 65.3451C43.5108 61.9236 45.2747 56.7553 41.5024 57.1434C39.3508 57.3648 39.4203 59.5696 39.5927 60.8331" stroke="#1D1D1B" stroke-linecap="round" stroke-linejoin="round"/>
<path d="M43.4258 68.0078L45.0808 69.0439" stroke="#1D1D1B" stroke-linecap="round" stroke-linejoin="round"/>
<path d="M43.6914 69.4759L44.6716 67.5352" stroke="#1D1D1B" stroke-linecap="round" stroke-linejoin="round"/>
<path d="M49.6717 67.5938L48.0273 68.6479" stroke="#1D1D1B" stroke-linecap="round" stroke-linejoin="round"/>
<path d="M49.4213 69.0627L48.4219 67.1328" stroke="#1D1D1B" stroke-linecap="round" stroke-linejoin="round"/>
<path d="M45.9961 69.8422L47.3981 69.75L46.8043 71.1705L45.9961 69.8422Z" fill="#1D1D1B"/>
<path d="M39.7539 62.4219C39.7539 62.4219 39.9118 64.9935 40.4202 66.0603" stroke="#1D1D1B" stroke-linecap="round" stroke-linejoin="round"/>
<path d="M29.8775 29.8711L30.8389 31.3732L32.5556 31.3882L31.5002 32.8176L32.0171 34.5464L30.4032 33.9279L29.0058 34.9813L29.064 33.1698L27.6836 32.0921L29.3333 31.5905L29.8775 29.8711Z" stroke="#1D1D1B" stroke-linecap="round" stroke-linejoin="round"/>
<path d="M25.7446 44.0117L26.5616 45.279L28.0229 45.2898L27.1233 46.4979L27.5614 47.9569L26.1884 47.4362L24.9978 48.327L25.0489 46.7976L23.875 45.8888L25.2798 45.464L25.7446 44.0117Z" stroke="#1D1D1B" stroke-linecap="round" stroke-linejoin="round"/>
<path d="M27.2095 51.0039L28.1709 52.506L29.8876 52.521L28.8322 53.9505L29.3491 55.6792L27.7353 55.0611L26.3378 56.1141L26.396 54.3026L25.0156 53.2249L26.6653 52.7233L27.2095 51.0039Z" stroke="#1D1D1B" stroke-linecap="round" stroke-linejoin="round"/>
</svg>
